<mxfile host="app.diagrams.net" agent="Mozilla/5.0 (Windows NT 10.0; Win64; x64) AppleWebKit/537.36 (KHTML, like Gecko) Chrome/139.0.0.0 Safari/537.36 Edg/139.0.0.0" version="27.1.4">
  <diagram name="第 1 页" id="9FR4IYq0b1U7dHQeGQu_">
    <mxGraphModel dx="1331" dy="-419" grid="1" gridSize="10" guides="1" tooltips="1" connect="1" arrows="1" fold="1" page="1" pageScale="1" pageWidth="827" pageHeight="1169" math="0" shadow="0">
      <root>
        <mxCell id="0" />
        <mxCell id="1" parent="0" />
        <mxCell id="r1wOSyVfJgQ9IfSNWjg6-53" value="" style="rounded=1;whiteSpace=wrap;html=1;" vertex="1" parent="1">
          <mxGeometry x="600" y="1230" width="220" height="270" as="geometry" />
        </mxCell>
        <mxCell id="r1wOSyVfJgQ9IfSNWjg6-1" value="&lt;font style=&quot;font-size: 13px;&quot;&gt;&lt;span style=&quot;text-align: left;&quot;&gt;Request: LLM Inference&lt;/span&gt;&lt;br style=&quot;text-align: left;&quot;&gt;&lt;span style=&quot;text-align: left;&quot;&gt;SLO: Latency &amp;lt; 100ms&lt;/span&gt;&lt;/font&gt;" style="rounded=1;whiteSpace=wrap;html=1;fillColor=#e1d5e7;strokeColor=#9673a6;strokeWidth=3;" vertex="1" parent="1">
          <mxGeometry x="10" y="1240" width="160" height="80" as="geometry" />
        </mxCell>
        <mxCell id="r1wOSyVfJgQ9IfSNWjg6-2" value="&lt;font style=&quot;font-size: 14px;&quot;&gt;&lt;span style=&quot;text-align: left;&quot;&gt;DL Training&lt;/span&gt;&lt;br style=&quot;text-align: left;&quot;&gt;&lt;span style=&quot;text-align: left;&quot;&gt;Goal: Max Throughput&lt;/span&gt;&lt;/font&gt;" style="rounded=1;whiteSpace=wrap;html=1;fillColor=#fff2cc;strokeColor=#d6b656;strokeWidth=3;" vertex="1" parent="1">
          <mxGeometry x="10" y="1330" width="160" height="80" as="geometry" />
        </mxCell>
        <mxCell id="r1wOSyVfJgQ9IfSNWjg6-3" value="&lt;span style=&quot;text-align: left;&quot;&gt;&lt;font style=&quot;font-size: 14px;&quot;&gt;DL Inference&lt;/font&gt;&lt;/span&gt;" style="rounded=1;whiteSpace=wrap;html=1;fillColor=#d5e8d4;strokeColor=#82b366;strokeWidth=3;" vertex="1" parent="1">
          <mxGeometry x="10" y="1440" width="160" height="60" as="geometry" />
        </mxCell>
        <mxCell id="r1wOSyVfJgQ9IfSNWjg6-4" value="" style="rounded=1;whiteSpace=wrap;html=1;fillColor=#f8cecc;strokeColor=#b85450;strokeWidth=3;" vertex="1" parent="1">
          <mxGeometry x="240" y="1240" width="300" height="260" as="geometry" />
        </mxCell>
        <mxCell id="r1wOSyVfJgQ9IfSNWjg6-5" value="Hybrid Co-Scheduler" style="text;html=1;strokeColor=none;fillColor=none;align=center;verticalAlign=middle;whiteSpace=wrap;rounded=0;fontSize=16;fontStyle=1;" vertex="1" parent="1">
          <mxGeometry x="280" y="1250" width="190" height="40" as="geometry" />
        </mxCell>
        <mxCell id="r1wOSyVfJgQ9IfSNWjg6-6" value="Performance Predictor" style="rounded=1;whiteSpace=wrap;html=1;fillColor=#dae8fc;strokeColor=#6c8ebf;strokeWidth=2;fontSize=12;fontStyle=1;" vertex="1" parent="1">
          <mxGeometry x="260" y="1310" width="120" height="60" as="geometry" />
        </mxCell>
        <mxCell id="r1wOSyVfJgQ9IfSNWjg6-7" value="Cost and SLO Optimization Engine" style="rounded=1;whiteSpace=wrap;html=1;fillColor=#e1d5e7;strokeColor=#9673a6;strokeWidth=2;fontSize=12;fontStyle=1;" vertex="1" parent="1">
          <mxGeometry x="400" y="1310" width="120" height="60" as="geometry" />
        </mxCell>
        <mxCell id="r1wOSyVfJgQ9IfSNWjg6-8" value="" style="endArrow=classic;html=1;rounded=0;exitX=1;exitY=0.5;exitDx=0;exitDy=0;entryX=0;entryY=0.5;entryDx=0;entryDy=0;strokeWidth=2;" edge="1" parent="1" source="r1wOSyVfJgQ9IfSNWjg6-6" target="r1wOSyVfJgQ9IfSNWjg6-7">
          <mxGeometry width="50" height="50" relative="1" as="geometry">
            <mxPoint x="390" y="1420" as="sourcePoint" />
            <mxPoint x="440" y="1370" as="targetPoint" />
          </mxGeometry>
        </mxCell>
        <mxCell id="r1wOSyVfJgQ9IfSNWjg6-9" value="" style="endArrow=classic;html=1;rounded=0;exitX=1;exitY=0.5;exitDx=0;exitDy=0;strokeWidth=2;strokeColor=#9673a6;" edge="1" parent="1" source="r1wOSyVfJgQ9IfSNWjg6-1">
          <mxGeometry width="50" height="50" relative="1" as="geometry">
            <mxPoint x="390" y="1420" as="sourcePoint" />
            <mxPoint x="240" y="1322" as="targetPoint" />
          </mxGeometry>
        </mxCell>
        <mxCell id="r1wOSyVfJgQ9IfSNWjg6-10" value="" style="endArrow=classic;html=1;rounded=0;exitX=1;exitY=0.5;exitDx=0;exitDy=0;strokeWidth=2;strokeColor=#d6b656;entryX=0;entryY=0.5;entryDx=0;entryDy=0;" edge="1" parent="1" source="r1wOSyVfJgQ9IfSNWjg6-2" target="r1wOSyVfJgQ9IfSNWjg6-4">
          <mxGeometry width="50" height="50" relative="1" as="geometry">
            <mxPoint x="390" y="1420" as="sourcePoint" />
            <mxPoint x="230" y="1360" as="targetPoint" />
          </mxGeometry>
        </mxCell>
        <mxCell id="r1wOSyVfJgQ9IfSNWjg6-11" value="" style="endArrow=classic;html=1;rounded=0;exitX=1;exitY=0.5;exitDx=0;exitDy=0;strokeWidth=2;strokeColor=#82b366;" edge="1" parent="1" source="r1wOSyVfJgQ9IfSNWjg6-3">
          <mxGeometry width="50" height="50" relative="1" as="geometry">
            <mxPoint x="390" y="1420" as="sourcePoint" />
            <mxPoint x="240" y="1390" as="targetPoint" />
          </mxGeometry>
        </mxCell>
        <mxCell id="r1wOSyVfJgQ9IfSNWjg6-12" value="Real-time Monitoring and Dynamic Adjustment" style="text;html=1;strokeColor=#d79b00;fillColor=#ffe6cc;align=center;verticalAlign=middle;whiteSpace=wrap;rounded=1;fontSize=12;fontStyle=1;" vertex="1" parent="1">
          <mxGeometry x="310" y="1390" width="140" height="60" as="geometry" />
        </mxCell>
        <mxCell id="r1wOSyVfJgQ9IfSNWjg6-13" value="" style="endArrow=classic;html=1;rounded=0;exitX=1;exitY=0.5;exitDx=0;exitDy=0;strokeWidth=3;strokeColor=#b85450;" edge="1" parent="1" source="r1wOSyVfJgQ9IfSNWjg6-4">
          <mxGeometry width="50" height="50" relative="1" as="geometry">
            <mxPoint x="540" y="1370" as="sourcePoint" />
            <mxPoint x="590" y="1370" as="targetPoint" />
          </mxGeometry>
        </mxCell>
        <mxCell id="r1wOSyVfJgQ9IfSNWjg6-33" value="A100" style="rounded=1;whiteSpace=wrap;html=1;fillColor=#fff2cc;strokeColor=#d6b656;fontSize=12;fontStyle=1;strokeWidth=2;" vertex="1" parent="1">
          <mxGeometry x="620" y="1250" width="80" height="40" as="geometry" />
        </mxCell>
        <mxCell id="r1wOSyVfJgQ9IfSNWjg6-34" value="V100" style="rounded=1;whiteSpace=wrap;html=1;fillColor=#ffe6cc;strokeColor=#d79b00;fontSize=12;fontStyle=1;strokeWidth=2;" vertex="1" parent="1">
          <mxGeometry x="620" y="1310" width="80" height="40" as="geometry" />
        </mxCell>
        <mxCell id="r1wOSyVfJgQ9IfSNWjg6-35" value="V100" style="rounded=1;whiteSpace=wrap;html=1;fillColor=#ffe6cc;strokeColor=#d79b00;fontSize=12;fontStyle=1;strokeWidth=2;opacity=70;" vertex="1" parent="1">
          <mxGeometry x="620" y="1370" width="80" height="40" as="geometry" />
        </mxCell>
        <mxCell id="r1wOSyVfJgQ9IfSNWjg6-36" value="T4" style="rounded=1;whiteSpace=wrap;html=1;fillColor=#d5e8d4;strokeColor=#82b366;fontSize=12;fontStyle=1;strokeWidth=2;" vertex="1" parent="1">
          <mxGeometry x="620" y="1445" width="80" height="35" as="geometry" />
        </mxCell>
        <mxCell id="r1wOSyVfJgQ9IfSNWjg6-49" value="A100" style="rounded=1;whiteSpace=wrap;html=1;fillColor=#fff2cc;strokeColor=#d6b656;fontSize=12;fontStyle=1;strokeWidth=2;" vertex="1" parent="1">
          <mxGeometry x="720" y="1250" width="80" height="40" as="geometry" />
        </mxCell>
        <mxCell id="r1wOSyVfJgQ9IfSNWjg6-50" value="V100" style="rounded=1;whiteSpace=wrap;html=1;fillColor=#ffe6cc;strokeColor=#d79b00;fontSize=12;fontStyle=1;strokeWidth=2;" vertex="1" parent="1">
          <mxGeometry x="720" y="1310" width="80" height="40" as="geometry" />
        </mxCell>
        <mxCell id="r1wOSyVfJgQ9IfSNWjg6-51" value="V100" style="rounded=1;whiteSpace=wrap;html=1;fillColor=#ffe6cc;strokeColor=#d79b00;fontSize=12;fontStyle=1;strokeWidth=2;opacity=70;" vertex="1" parent="1">
          <mxGeometry x="720" y="1370" width="80" height="40" as="geometry" />
        </mxCell>
        <mxCell id="r1wOSyVfJgQ9IfSNWjg6-52" value="T4" style="rounded=1;whiteSpace=wrap;html=1;fillColor=#d5e8d4;strokeColor=#82b366;fontSize=12;fontStyle=1;strokeWidth=2;" vertex="1" parent="1">
          <mxGeometry x="720" y="1445" width="80" height="35" as="geometry" />
        </mxCell>
      </root>
    </mxGraphModel>
  </diagram>
</mxfile>
